<?xml version='1.0' encoding='UTF-8' standalone='no'?>
<!-- Created with Fritzing (https://fritzing.org/) -->
<svg xmlns="http://www.w3.org/2000/svg" width="5.90551in" viewBox="0 0 425.197 283.465"  height="3.93701in" baseProfile="tiny" x="0in" y="0in" xmlns:svg="http://www.w3.org/2000/svg" version="1.2">
 <g partID="855422200">
  <g  id="board">
   <rect width="424.621"  stroke-width="0.5" height="282.889" fill="none" x="0.288" id="boardoutline" y="0.288" fill-opacity="0.5" stroke="black"/>
  </g>
 </g>
 <g partID="855422380">
  <g transform="translate(277.354,269.445)">
   <g transform="matrix(-1,0,0,-1,0,0)">
    <g id="copper0">
     <g transform="rotate(-90)">
      <rect width="4.176" stroke-width="1.44" height="4.176" fill="none" x="-88.4641" id="rect1007" y="134.712" stroke="black"/>
     </g>
     <g transform="rotate(-90)">
      <rect width="4.176" stroke-width="1.44" height="4.176" fill="none" x="-114.6" id="rect1005" y="12.312" stroke="black"/>
     </g>
     <g transform="rotate(-90)">
      <rect width="4.176" stroke-width="1.44" height="4.176" fill="none" x="-52.4641" id="rect1003" y="12.312" stroke="black"/>
     </g>
     <g transform="rotate(-90)">
      <rect width="4.176" stroke-width="1.44" height="4.176" fill="none" x="-153.264" id="rect1001" y="134.712" stroke="black"/>
     </g>
     <g transform="rotate(-90)">
      <circle stroke-width="1.44" fill="none" r="2.088" id="connector0pin" connectorname="PTA5" cx="-50.4007" stroke="black" cy="14.4028"/>
     </g>
     <g transform="rotate(-90)">
      <circle stroke-width="1.44" fill="none" r="2.088" id="connector1pin" connectorname="PTD2" cx="-50.4007" stroke="black" cy="7.2028"/>
     </g>
     <g transform="rotate(-90)">
      <circle stroke-width="1.44" fill="none" r="2.088" id="connector2pin" connectorname="PTA13" cx="-57.6007" stroke="black" cy="14.4028"/>
     </g>
     <g transform="rotate(-90)">
      <circle stroke-width="1.44" fill="none" r="2.088" id="connector3pin" connectorname="PTD3" cx="-57.6007" stroke="black" cy="7.2028"/>
     </g>
     <g transform="rotate(-90)">
      <circle stroke-width="1.44" fill="none" r="2.088" id="connector4pin" connectorname="PTA12" cx="-64.8007" stroke="black" cy="14.4028"/>
     </g>
     <g transform="rotate(-90)">
      <circle stroke-width="1.44" fill="none" r="2.088" id="connector5pin" connectorname="PTB16" cx="-64.8007" stroke="black" cy="7.2028"/>
     </g>
     <g transform="rotate(-90)">
      <circle stroke-width="1.44" fill="none" r="2.088" id="connector6pin" connectorname="PTC8" cx="-72.0007" stroke="black" cy="14.4028"/>
     </g>
     <g transform="rotate(-90)">
      <circle stroke-width="1.44" fill="none" r="2.088" id="connector7pin" connectorname="PTA2" cx="-72.0007" stroke="black" cy="7.2028"/>
     </g>
     <g transform="rotate(-90)">
      <circle stroke-width="1.44" fill="none" r="2.088" id="connector8pin" connectorname="PTC9" cx="-79.2007" stroke="black" cy="14.4028"/>
     </g>
     <g transform="rotate(-90)">
      <circle stroke-width="1.44" fill="none" r="2.088" id="connector9pin" connectorname="PTA4" cx="-79.2007" stroke="black" cy="7.2028"/>
     </g>
     <g transform="rotate(-90)">
      <circle stroke-width="1.44" fill="none" r="2.088" id="connector10pin" connectorname="PTC7" cx="-86.4007" stroke="black" cy="14.4028"/>
     </g>
     <g transform="rotate(-90)">
      <circle stroke-width="1.44" fill="none" r="2.088" id="connector11pin" connectorname="PTB18" cx="-86.4007" stroke="black" cy="7.2028"/>
     </g>
     <g transform="rotate(-90)">
      <circle stroke-width="1.44" fill="none" r="2.088" id="connector12pin" connectorname="PTC10" cx="-93.6007" stroke="black" cy="14.4028"/>
     </g>
     <g transform="rotate(-90)">
      <circle stroke-width="1.44" fill="none" r="2.088" id="connector13pin" connectorname="PTC3" cx="-93.6007" stroke="black" cy="7.2028"/>
     </g>
     <g transform="rotate(-90)">
      <circle stroke-width="1.44" fill="none" r="2.088" id="connector14pin" connectorname="PTC5" cx="-100.801" stroke="black" cy="14.4028"/>
     </g>
     <g transform="rotate(-90)">
      <circle stroke-width="1.44" fill="none" r="2.088" id="connector15pin" connectorname="PTC6" cx="-100.801" stroke="black" cy="7.2028"/>
     </g>
     <g transform="rotate(-90)">
      <circle stroke-width="1.44" fill="none" r="2.088" id="connector16pin" connectorname="VREF_OUT" cx="-112.501" stroke="black" cy="14.4028"/>
     </g>
     <g transform="rotate(-90)">
      <circle stroke-width="1.44" fill="none" r="2.088" id="connector17pin" connectorname="PTB19" cx="-112.501" stroke="black" cy="7.2028"/>
     </g>
     <g transform="rotate(-90)">
      <circle stroke-width="1.44" fill="none" r="2.088" id="connector18pin" connectorname="3" cx="-119.701" stroke="black" cy="14.4028"/>
     </g>
     <g transform="rotate(-90)">
      <circle stroke-width="1.44" fill="none" r="2.088" id="connector19pin" connectorname="PTA1" cx="-119.701" stroke="black" cy="7.2028"/>
     </g>
     <g transform="rotate(-90)">
      <circle stroke-width="1.44" fill="none" r="2.088" id="connector20pin" connectorname="PTC0" cx="-126.901" stroke="black" cy="14.4028"/>
     </g>
     <g transform="rotate(-90)">
      <circle stroke-width="1.44" fill="none" r="2.088" id="connector21pin" connectorname="PTD4" cx="-126.901" stroke="black" cy="7.2028"/>
     </g>
     <g transform="rotate(-90)">
      <circle stroke-width="1.44" fill="none" r="2.088" id="connector22pin" connectorname="PTC11" cx="-134.101" stroke="black" cy="14.4028"/>
     </g>
     <g transform="rotate(-90)">
      <circle stroke-width="1.44" fill="none" r="2.088" id="connector23pin" connectorname="PTD6" cx="-134.101" stroke="black" cy="7.2028"/>
     </g>
     <g transform="rotate(-90)">
      <circle stroke-width="1.44" fill="none" r="2.088" id="connector24pin" connectorname="9" cx="-141.301" stroke="black" cy="14.4028"/>
     </g>
     <g transform="rotate(-90)">
      <circle stroke-width="1.44" fill="none" r="2.088" id="connector25pin" connectorname="PTD7" cx="-141.301" stroke="black" cy="7.2028"/>
     </g>
     <g transform="rotate(-90)">
      <circle stroke-width="1.44" fill="none" r="2.088" id="connector26pin" connectorname="11" cx="-148.501" stroke="black" cy="14.4028"/>
     </g>
     <g transform="rotate(-90)">
      <circle stroke-width="1.44" fill="none" r="2.088" id="connector27pin" connectorname="PTD5" cx="-148.501" stroke="black" cy="7.2028"/>
     </g>
     <g transform="rotate(-90)">
      <circle stroke-width="1.44" fill="none" r="2.088" id="connector28pin" connectorname="13" cx="-155.701" stroke="black" cy="14.4028"/>
     </g>
     <g transform="rotate(-90)">
      <circle stroke-width="1.44" fill="none" r="2.088" id="connector29pin" connectorname="GND" cx="-155.701" stroke="black" cy="7.2028"/>
     </g>
     <g transform="rotate(-90)">
      <circle stroke-width="1.44" fill="none" r="2.088" id="connector30pin" connectorname="15" cx="-162.901" stroke="black" cy="14.4028"/>
     </g>
     <g transform="rotate(-90)">
      <circle stroke-width="1.44" fill="none" r="2.088" id="connector31pin" connectorname="VREFH" cx="-162.901" stroke="black" cy="7.2028"/>
     </g>
     <g transform="rotate(-90)">
      <circle stroke-width="1.44" fill="none" r="2.088" id="connector32pin" connectorname="17" cx="-170.101" stroke="black" cy="14.4028"/>
     </g>
     <g transform="rotate(-90)">
      <circle stroke-width="1.44" fill="none" r="2.088" id="connector33pin" connectorname="PTE0" cx="-170.101" stroke="black" cy="7.2028"/>
     </g>
     <g transform="rotate(-90)">
      <circle stroke-width="1.44" fill="none" r="2.088" id="connector34pin" connectorname="19" cx="-177.301" stroke="black" cy="14.4028"/>
     </g>
     <g transform="rotate(-90)">
      <circle stroke-width="1.44" fill="none" r="2.088" id="connector35pin" connectorname="PTE1" cx="-177.301" stroke="black" cy="7.2028"/>
     </g>
     <g transform="rotate(-90)">
      <circle stroke-width="1.44" fill="none" r="2.088" id="connector36pin" cx="-151.201" stroke="black" cy="136.803"/>
     </g>
     <g transform="rotate(-90)">
      <circle stroke-width="1.44" fill="none" r="2.088" id="connector37pin" cx="-151.201" stroke="black" cy="144.003"/>
     </g>
     <g transform="rotate(-90)">
      <circle stroke-width="1.44" fill="none" r="2.088" id="connector38pin" connectorname="3" cx="-144.001" stroke="black" cy="136.803"/>
     </g>
     <g transform="rotate(-90)">
      <circle stroke-width="1.44" fill="none" r="2.088" id="connector39pin" connectorname="+3V3" cx="-144.001" stroke="black" cy="144.003"/>
     </g>
     <g transform="rotate(-90)">
      <circle stroke-width="1.44" fill="none" r="2.088" id="connector40pin" connectorname="5" cx="-136.801" stroke="black" cy="136.803"/>
     </g>
     <g transform="rotate(-90)">
      <circle stroke-width="1.44" fill="none" r="2.088" id="connector41pin" connectorname="RST" cx="-136.801" stroke="black" cy="144.003"/>
     </g>
     <g transform="rotate(-90)">
      <circle stroke-width="1.44" fill="none" r="2.088" id="connector42pin" connectorname="7" cx="-129.601" stroke="black" cy="136.803"/>
     </g>
     <g transform="rotate(-90)">
      <circle stroke-width="1.44" fill="none" r="2.088" id="connector43pin" connectorname="+3V3" cx="-129.601" stroke="black" cy="144.003"/>
     </g>
     <g transform="rotate(-90)">
      <circle stroke-width="1.44" fill="none" r="2.088" id="connector44pin" connectorname="9" cx="-122.401" stroke="black" cy="136.803"/>
     </g>
     <g transform="rotate(-90)">
      <circle stroke-width="1.44" fill="none" r="2.088" id="connector45pin" connectorname="+5V" cx="-122.401" stroke="black" cy="144.003"/>
     </g>
     <g transform="rotate(-90)">
      <circle stroke-width="1.44" fill="none" r="2.088" id="connector46pin" connectorname="11" cx="-115.201" stroke="black" cy="136.803"/>
     </g>
     <g transform="rotate(-90)">
      <circle stroke-width="1.44" fill="none" r="2.088" id="connector47pin" connectorname="GND" cx="-115.201" stroke="black" cy="144.003"/>
     </g>
     <g transform="rotate(-90)">
      <circle stroke-width="1.44" fill="none" r="2.088" id="connector48pin" connectorname="13" cx="-108.001" stroke="black" cy="136.803"/>
     </g>
     <g transform="rotate(-90)">
      <circle stroke-width="1.44" fill="none" r="2.088" id="connector49pin" connectorname="GND" cx="-108.001" stroke="black" cy="144.003"/>
     </g>
     <g transform="rotate(-90)">
      <circle stroke-width="1.44" fill="none" r="2.088" id="connector50pin" connectorname="15" cx="-100.801" stroke="black" cy="136.803"/>
     </g>
     <g transform="rotate(-90)">
      <circle stroke-width="1.44" fill="none" r="2.088" id="connector51pin" connectorname="PWR" cx="-100.801" stroke="black" cy="144.003"/>
     </g>
     <g transform="rotate(-90)">
      <circle stroke-width="1.44" fill="none" r="2.088" id="connector52pin" connectorname="DAC0_OUT" cx="-86.4007" stroke="black" cy="136.803"/>
     </g>
     <g transform="rotate(-90)">
      <circle stroke-width="1.44" fill="none" r="2.088" id="connector53pin" connectorname="PTB2" cx="-86.4007" stroke="black" cy="144.003"/>
     </g>
     <g transform="rotate(-90)">
      <circle stroke-width="1.44" fill="none" r="2.088" id="connector54pin" connectorname="PTC4" cx="-79.2007" stroke="black" cy="136.803"/>
     </g>
     <g transform="rotate(-90)">
      <circle stroke-width="1.44" fill="none" r="2.088" id="connector55pin" connectorname="PTB3" cx="-79.2007" stroke="black" cy="144.003"/>
     </g>
     <g transform="rotate(-90)">
      <circle stroke-width="1.44" fill="none" r="2.088" id="connector56pin" connectorname="ADC0_DM3" cx="-72.0007" stroke="black" cy="136.803"/>
     </g>
     <g transform="rotate(-90)">
      <circle stroke-width="1.44" fill="none" r="2.088" id="connector57pin" connectorname="PTC2" cx="-72.0007" stroke="black" cy="144.003"/>
     </g>
     <g transform="rotate(-90)">
      <circle stroke-width="1.44" fill="none" r="2.088" id="connector58pin" connectorname="ADC0_DP3" cx="-64.8007" stroke="black" cy="136.803"/>
     </g>
     <g transform="rotate(-90)">
      <circle stroke-width="1.44" fill="none" r="2.088" id="connector59pin" connectorname="PTC1" cx="-64.8007" stroke="black" cy="144.003"/>
     </g>
     <g transform="rotate(-90)">
      <circle stroke-width="1.44" fill="none" r="2.088" id="connector60pin" connectorname="ADC0_DM0" cx="-57.6007" stroke="black" cy="136.803"/>
     </g>
     <g transform="rotate(-90)">
      <circle stroke-width="1.44" fill="none" r="2.088" id="connector61pin" connectorname="PTB1" cx="-57.6007" stroke="black" cy="144.003"/>
     </g>
     <g transform="rotate(-90)">
      <circle stroke-width="1.44" fill="none" r="2.088" id="connector62pin" connectorname="ADC0_DP0" cx="-50.4007" stroke="black" cy="136.803"/>
     </g>
     <g transform="rotate(-90)">
      <circle stroke-width="1.44" fill="none" r="2.088" id="connector63pin" connectorname="PTB0" cx="-50.4007" stroke="black" cy="144.003"/>
     </g>
    </g>
   </g>
  </g>
 </g>
 <g partID="855422410">
  <g transform="translate(327.447,83.3118)">
   <g transform="matrix(-2.77556e-16,-1,1,-2.77556e-16,0,0)">
    <g gorn="0.2.0"  id="copper0">
     <g gorn="0.2.0.0"  id="copper0_2_">
      <circle gorn="0.2.0.0.0"  stroke-width="1.5" r="2.835" fill="none" id="connector1pin" cx="8.251" cy="14.705" stroke="black"/>
      <circle gorn="0.2.0.0.1"  stroke-width="1.5" r="2.835" fill="none" id="connector2pin" cx="22.667" cy="14.705" stroke="black"/>
      <circle gorn="0.2.0.0.2"  stroke-width="1.5" r="2.835" fill="none" id="connector3pin" cx="37.069" cy="14.705" stroke="black"/>
     </g>
    </g>
   </g>
  </g>
 </g>
 <g partID="855422440">
  <g transform="translate(327.447,126.512)">
   <g transform="matrix(-2.77556e-16,-1,1,-2.77556e-16,0,0)">
    <g gorn="0.2.0"  id="copper0">
     <g gorn="0.2.0.0"  id="copper0_2_">
      <circle gorn="0.2.0.0.0"  stroke-width="1.5" r="2.835" fill="none" id="connector1pin" cx="8.251" cy="14.705" stroke="black"/>
      <circle gorn="0.2.0.0.1"  stroke-width="1.5" r="2.835" fill="none" id="connector2pin" cx="22.667" cy="14.705" stroke="black"/>
      <circle gorn="0.2.0.0.2"  stroke-width="1.5" r="2.835" fill="none" id="connector3pin" cx="37.069" cy="14.705" stroke="black"/>
     </g>
    </g>
   </g>
  </g>
 </g>
 <g partID="855422470">
  <g transform="translate(327.447,169.711)">
   <g transform="matrix(-4.44089e-16,-1,1,-4.44089e-16,0,0)">
    <g gorn="0.2.0"  id="copper0">
     <g gorn="0.2.0.0"  id="copper0_2_">
      <circle gorn="0.2.0.0.0"  stroke-width="1.5" r="2.835" fill="none" id="connector1pin" cx="8.251" cy="14.705" stroke="black"/>
      <circle gorn="0.2.0.0.1"  stroke-width="1.5" r="2.835" fill="none" id="connector2pin" cx="22.667" cy="14.705" stroke="black"/>
      <circle gorn="0.2.0.0.2"  stroke-width="1.5" r="2.835" fill="none" id="connector3pin" cx="37.069" cy="14.705" stroke="black"/>
     </g>
    </g>
   </g>
  </g>
 </g>
 <g partID="855422500">
  <g transform="translate(327.416,198.577)">
   <g transform="matrix(-2.77556e-16,-1,1,-2.77556e-16,0,0)">
    <g gorn="0.2.0"  id="copper0">
     <g gorn="0.2.0.0"  id="copper0_2_">
      <circle gorn="0.2.0.0.0"  stroke-width="1.5" r="2.835" fill="none" id="connector1pin" cx="8.33301" cy="14.728" stroke="black"/>
      <circle gorn="0.2.0.0.1"  stroke-width="1.5" r="2.835" fill="none" id="connector2pin" cx="22.732" cy="14.735" stroke="black"/>
     </g>
    </g>
   </g>
  </g>
 </g>
 <g partID="855432860">
  <g transform="translate(327.447,241.711)">
   <g transform="matrix(-4.44089e-16,-1,1,-4.44089e-16,0,0)">
    <g gorn="0.2.0"  id="copper0">
     <g gorn="0.2.0.0"  id="copper0_2_">
      <circle gorn="0.2.0.0.0"  stroke-width="1.5" r="2.835" fill="none" id="connector1pin" cx="8.251" cy="14.705" stroke="black"/>
      <circle gorn="0.2.0.0.1"  stroke-width="1.5" r="2.835" fill="none" id="connector2pin" cx="22.667" cy="14.705" stroke="black"/>
      <circle gorn="0.2.0.0.2"  stroke-width="1.5" r="2.835" fill="none" id="connector3pin" cx="37.069" cy="14.705" stroke="black"/>
     </g>
    </g>
   </g>
  </g>
 </g>
 <g partID="855432890">
  <g transform="translate(327.416,270.577)">
   <g transform="matrix(-4.44089e-16,-1,1,-4.44089e-16,0,0)">
    <g gorn="0.2.0"  id="copper0">
     <g gorn="0.2.0.0"  id="copper0_2_">
      <circle gorn="0.2.0.0.0"  stroke-width="1.5" r="2.835" fill="none" id="connector1pin" cx="8.33301" cy="14.728" stroke="black"/>
      <circle gorn="0.2.0.0.1"  stroke-width="1.5" r="2.835" fill="none" id="connector2pin" cx="22.732" cy="14.735" stroke="black"/>
     </g>
    </g>
   </g>
  </g>
 </g>
 <g partID="855433740">
  <g transform="translate(90.4566,59.5777)">
   <g transform="matrix(2.22045e-16,1,-1,2.22045e-16,0,0)">
    <g gorn="0.2.0"  id="copper0">
     <g gorn="0.2.0.0"  id="copper0_2_">
      <circle gorn="0.2.0.0.0"  stroke-width="1.5" r="2.835" fill="none" id="connector1pin" cx="8.251" cy="14.705" stroke="black"/>
      <circle gorn="0.2.0.0.1"  stroke-width="1.5" r="2.835" fill="none" id="connector2pin" cx="22.667" cy="14.705" stroke="black"/>
      <circle gorn="0.2.0.0.2"  stroke-width="1.5" r="2.835" fill="none" id="connector3pin" cx="37.069" cy="14.705" stroke="black"/>
     </g>
    </g>
   </g>
  </g>
 </g>
 <g partID="855433770">
  <g transform="translate(90.4567,102.778)">
   <g transform="matrix(2.22045e-16,1,-1,2.22045e-16,0,0)">
    <g gorn="0.2.0"  id="copper0">
     <g gorn="0.2.0.0"  id="copper0_2_">
      <circle gorn="0.2.0.0.0"  stroke-width="1.5" r="2.835" fill="none" id="connector1pin" cx="8.251" cy="14.705" stroke="black"/>
      <circle gorn="0.2.0.0.1"  stroke-width="1.5" r="2.835" fill="none" id="connector2pin" cx="22.667" cy="14.705" stroke="black"/>
      <circle gorn="0.2.0.0.2"  stroke-width="1.5" r="2.835" fill="none" id="connector3pin" cx="37.069" cy="14.705" stroke="black"/>
     </g>
    </g>
   </g>
  </g>
 </g>
 <g partID="855433800">
  <g transform="translate(90.4867,145.913)">
   <g transform="matrix(2.22045e-16,1,-1,2.22045e-16,0,0)">
    <g gorn="0.2.0"  id="copper0">
     <g gorn="0.2.0.0"  id="copper0_2_">
      <circle gorn="0.2.0.0.0"  stroke-width="1.5" r="2.835" fill="none" id="connector1pin" cx="8.33301" cy="14.728" stroke="black"/>
      <circle gorn="0.2.0.0.1"  stroke-width="1.5" r="2.835" fill="none" id="connector2pin" cx="22.732" cy="14.735" stroke="black"/>
     </g>
    </g>
   </g>
  </g>
 </g>
 <g partID="855433830">
  <g transform="translate(90.4566,232.378)">
   <g transform="matrix(2.22045e-16,1,-1,2.22045e-16,0,0)">
    <g gorn="0.2.0"  id="copper0">
     <g gorn="0.2.0.0"  id="copper0_2_">
      <circle gorn="0.2.0.0.0"  stroke-width="1.5" r="2.835" fill="none" id="connector1pin" cx="8.251" cy="14.705" stroke="black"/>
      <circle gorn="0.2.0.0.1"  stroke-width="1.5" r="2.835" fill="none" id="connector2pin" cx="22.667" cy="14.705" stroke="black"/>
      <circle gorn="0.2.0.0.2"  stroke-width="1.5" r="2.835" fill="none" id="connector3pin" cx="37.069" cy="14.705" stroke="black"/>
     </g>
    </g>
   </g>
  </g>
 </g>
 <g partID="855433860">
  <g transform="translate(90.4866,203.513)">
   <g transform="matrix(2.22045e-16,1,-1,2.22045e-16,0,0)">
    <g gorn="0.2.0"  id="copper0">
     <g gorn="0.2.0.0"  id="copper0_2_">
      <circle gorn="0.2.0.0.0"  stroke-width="1.5" r="2.835" fill="none" id="connector1pin" cx="8.33301" cy="14.728" stroke="black"/>
      <circle gorn="0.2.0.0.1"  stroke-width="1.5" r="2.835" fill="none" id="connector2pin" cx="22.732" cy="14.735" stroke="black"/>
     </g>
    </g>
   </g>
  </g>
 </g>
 <g partID="855447130">
  <g transform="translate(90.4866,174.713)">
   <g transform="matrix(2.22045e-16,1,-1,2.22045e-16,0,0)">
    <g gorn="0.2.0"  id="copper0">
     <g gorn="0.2.0.0"  id="copper0_2_">
      <circle gorn="0.2.0.0.0"  stroke-width="1.5" r="2.835" fill="none" id="connector1pin" cx="8.33301" cy="14.728" stroke="black"/>
      <circle gorn="0.2.0.0.1"  stroke-width="1.5" r="2.835" fill="none" id="connector2pin" cx="22.732" cy="14.735" stroke="black"/>
     </g>
    </g>
   </g>
  </g>
 </g>
 <g partID="855442520">
  <line stroke-linecap="round" x2="340.481" y2="217.796" stroke-width="1.728" x1="313.433" y1="197.582" stroke="black"/>
 </g>
 <g partID="855442450">
  <line stroke-linecap="round" x2="313.434" y2="197.582" stroke-width="1.728" x1="271.374" y1="176.459" stroke="black"/>
 </g>
 <g partID="855432440">
  <line stroke-linecap="round" x2="284.626" y2="82.3526" stroke-width="1.728" x1="320.726" y1="82.3526" stroke="black"/>
 </g>
 <g partID="855428630">
  <line stroke-linecap="round" x2="271.284" y2="91.378" stroke-width="1.728" x1="284.626" y1="82.3526" stroke="black"/>
 </g>
 <g partID="855428590">
  <line stroke-linecap="round" x2="320.726" y2="82.3526" stroke-width="1.728" x1="341.088" y1="48.0358" stroke="black"/>
 </g>
 <g partID="855429540">
  <line stroke-linecap="round" x2="356.604" y2="38.9464" stroke-width="1.728" x1="262.888" y1="38.9464" stroke="black"/>
 </g>
 <g partID="855428840">
  <line stroke-linecap="round" x2="356.56" y2="60.6493" stroke-width="1.728" x1="356.604" y1="38.9464" stroke="black"/>
 </g>
 <g partID="855428790">
  <line stroke-linecap="round" x2="344.236" y2="60.6454" stroke-width="1.728" x1="356.56" y1="60.6493" stroke="black"/>
 </g>
 <g partID="855428730">
  <line stroke-linecap="round" x2="262.888" y2="38.9464" stroke-width="1.728" x1="262.95" y1="90.7766" stroke="black"/>
 </g>
 <g partID="855432540">
  <line stroke-linecap="round" x2="261.677" y2="98.8481" stroke-width="1.728" x1="255.789" y1="96.5546" stroke="black"/>
 </g>
 <g partID="855429070">
  <line stroke-linecap="round" x2="363.79" y2="31.8462" stroke-width="1.728" x1="363.79" y1="67.85" stroke="black"/>
 </g>
 <g partID="855429030">
  <line stroke-linecap="round" x2="255.779" y2="31.8462" stroke-width="1.728" x1="363.79" y1="31.8462" stroke="black"/>
 </g>
 <g partID="855428980">
  <line stroke-linecap="round" x2="255.789" y2="96.5547" stroke-width="1.728" x1="255.779" y1="31.8462" stroke="black"/>
 </g>
 <g partID="855428940">
  <line stroke-linecap="round" x2="363.79" y2="67.85" stroke-width="1.728" x1="344.13" y1="74.4015" stroke="black"/>
 </g>
 <g partID="855432380">
  <line stroke-linecap="round" x2="271.495" y2="99.0874" stroke-width="1.728" x1="284.626" y1="96.574" stroke="black"/>
 </g>
 <g partID="855432320">
  <line stroke-linecap="round" x2="284.626" y2="96.574" stroke-width="1.728" x1="320.726" y1="96.574" stroke="black"/>
 </g>
 <g partID="855429150">
  <line stroke-linecap="round" x2="320.726" y2="96.574" stroke-width="1.728" x1="340.173" y1="90.1012" stroke="black"/>
 </g>
 <g partID="855432200">
  <line stroke-linecap="round" x2="271.494" y2="120.685" stroke-width="1.728" x1="320.726" y1="111.16" stroke="black"/>
 </g>
 <g partID="855429660">
  <line stroke-linecap="round" x2="320.726" y2="111.16" stroke-width="1.728" x1="340.178" y1="104.518" stroke="black"/>
 </g>
 <g partID="855432620">
  <line stroke-linecap="round" x2="262.071" y2="112.698" stroke-width="1.728" x1="248.486" y1="96.5546" stroke="black"/>
 </g>
 <g partID="855430180">
  <line stroke-linecap="round" x2="248.578" y2="24.6455" stroke-width="1.728" x1="370.991" y1="24.6455" stroke="black"/>
 </g>
 <g partID="855430120">
  <line stroke-linecap="round" x2="370.991" y2="24.6455" stroke-width="1.728" x1="370.991" y1="118.255" stroke="black"/>
 </g>
 <g partID="855430040">
  <line stroke-linecap="round" x2="248.487" y2="96.5547" stroke-width="1.728" x1="248.578" y1="24.6455" stroke="black"/>
 </g>
 <g partID="855429970">
  <line stroke-linecap="round" x2="370.991" y2="118.255" stroke-width="1.728" x1="344.237" y1="118.26" stroke="black"/>
 </g>
 <g partID="855431150">
  <line stroke-linecap="round" x2="271.517" y2="128.069" stroke-width="1.728" x1="320.496" y1="125.359" stroke="black"/>
 </g>
 <g partID="855430940">
  <line stroke-linecap="round" x2="320.497" y2="125.358" stroke-width="1.728" x1="340.175" y1="131.978" stroke="black"/>
 </g>
 <g partID="855431270">
  <line stroke-linecap="round" x2="271.517" y2="135.272" stroke-width="1.728" x1="320.496" y1="132.662" stroke="black"/>
 </g>
 <g partID="855431010">
  <line stroke-linecap="round" x2="320.497" y2="132.661" stroke-width="1.728" x1="340.415" y1="145.891" stroke="black"/>
 </g>
 <g partID="855431410">
  <line stroke-linecap="round" x2="271.512" y2="142.681" stroke-width="1.728" x1="313.433" y1="146.896" stroke="black"/>
 </g>
 <g partID="855431080">
  <line stroke-linecap="round" x2="313.433" y2="146.896" stroke-width="1.728" x1="340.292" y1="160.518" stroke="black"/>
 </g>
 <g partID="855431710">
  <line stroke-linecap="round" x2="271.471" y2="150.102" stroke-width="1.728" x1="313.433" y1="161.482" stroke="black"/>
 </g>
 <g partID="855431550">
  <line stroke-linecap="round" x2="313.434" y2="161.482" stroke-width="1.728" x1="340.287" y1="174.912" stroke="black"/>
 </g>
 <g partID="855431770">
  <line stroke-linecap="round" x2="271.451" y2="157.372" stroke-width="1.728" x1="306.14" y1="168.775" stroke="black"/>
 </g>
 <g partID="855431620">
  <line stroke-linecap="round" x2="306.14" y2="168.775" stroke-width="1.728" x1="340.354" y1="189.176" stroke="black"/>
 </g>
 <g partID="855433030">
  <line stroke-linecap="round" x2="271.409" y2="169.183" stroke-width="1.728" x1="320.726" y1="190.29" stroke="black"/>
 </g>
 <g partID="855432940">
  <line stroke-linecap="round" x2="320.726" y2="190.289" stroke-width="1.728" x1="340.419" y1="203.482" stroke="black"/>
 </g>
 <g partID="855433290">
  <line stroke-linecap="round" x2="271.326" y2="183.745" stroke-width="1.728" x1="306.14" y1="204.51" stroke="black"/>
 </g>
 <g partID="855433220">
  <line stroke-linecap="round" x2="306.14" y2="204.511" stroke-width="1.728" x1="340.527" y1="232.154" stroke="black"/>
 </g>
 <g partID="855433520">
  <line stroke-linecap="round" x2="271.245" y2="191.067" stroke-width="1.728" x1="298.848" y1="211.804" stroke="black"/>
 </g>
 <g partID="855433350">
  <line stroke-linecap="round" x2="298.848" y2="211.803" stroke-width="1.728" x1="340.549" y1="246.511" stroke="black"/>
 </g>
 <g partID="855433650">
  <line stroke-linecap="round" x2="271.121" y2="198.409" stroke-width="1.728" x1="291.919" y1="219.097" stroke="black"/>
 </g>
 <g partID="855433580">
  <line stroke-linecap="round" x2="291.919" y2="219.097" stroke-width="1.728" x1="340.563" y1="260.885" stroke="black"/>
 </g>
 <g partID="855433890">
  <line stroke-linecap="round" x2="132.128" y2="183.656" stroke-width="1.728" x1="77.6234" y1="210.913" stroke="black"/>
 </g>
 <g partID="855433960">
  <line stroke-linecap="round" x2="132.191" y2="190.97" stroke-width="1.728" x1="77.5197" y1="225.14" stroke="black"/>
 </g>
 <g partID="855435270">
  <line stroke-linecap="round" x2="141.919" y2="118.206" stroke-width="1.728" x1="147.684" y1="118.042" stroke="black"/>
 </g>
 <g partID="855435210">
  <line stroke-linecap="round" x2="147.684" y2="118.042" stroke-width="1.728" x1="147.684" y1="67.9796" stroke="black"/>
 </g>
 <g partID="855434650">
  <line stroke-linecap="round" x2="147.684" y2="67.9796" stroke-width="1.728" x1="77.8366" y1="67.8331" stroke="black"/>
 </g>
 <g partID="855435730">
  <line stroke-linecap="round" x2="154.768" y2="60.423" stroke-width="1.728" x1="61.2282" y1="60.653" stroke="black"/>
 </g>
 <g partID="855435450">
  <line stroke-linecap="round" x2="154.768" y2="125.599" stroke-width="1.728" x1="154.768" y1="60.423" stroke="black"/>
 </g>
 <g partID="855435390">
  <line stroke-linecap="round" x2="141.92" y2="125.46" stroke-width="1.728" x1="154.768" y1="125.599" stroke="black"/>
 </g>
 <g partID="855435330">
  <line stroke-linecap="round" x2="61.2282" y2="60.653" stroke-width="1.728" x1="68.5655" y1="82.1213" stroke="black"/>
 </g>
 <g partID="855434720">
  <line stroke-linecap="round" x2="68.5655" y2="82.1213" stroke-width="1.728" x1="73.6669" y1="82.2089" stroke="black"/>
 </g>
 <g partID="855436070">
  <line stroke-linecap="round" x2="141.92" y2="132.646" stroke-width="1.728" x1="162.048" y1="132.667" stroke="black"/>
 </g>
 <g partID="855436010">
  <line stroke-linecap="round" x2="162.048" y2="132.667" stroke-width="1.728" x1="162.048" y1="53.3158" stroke="black"/>
 </g>
 <g partID="855435950">
  <line stroke-linecap="round" x2="162.047" y2="53.3158" stroke-width="1.728" x1="54.1627" y1="53.3158" stroke="black"/>
 </g>
 <g partID="855435890">
  <line stroke-linecap="round" x2="54.1627" y2="53.3158" stroke-width="1.728" x1="61.2282" y1="89.4586" stroke="black"/>
 </g>
 <g partID="855434790">
  <line stroke-linecap="round" x2="61.2282" y2="89.4586" stroke-width="1.728" x1="73.883" y1="95.7219" stroke="black"/>
 </g>
 <g partID="855436310">
  <line stroke-linecap="round" x2="169.385" y2="46.2502" stroke-width="1.728" x1="39.7599" y1="46.2502" stroke="black"/>
 </g>
 <g partID="855436250">
  <line stroke-linecap="round" x2="169.385" y2="139.733" stroke-width="1.728" x1="169.385" y1="46.2502" stroke="black"/>
 </g>
 <g partID="855436190">
  <line stroke-linecap="round" x2="141.92" y2="139.84" stroke-width="1.728" x1="169.385" y1="139.733" stroke="black"/>
 </g>
 <g partID="855436130">
  <line stroke-linecap="round" x2="39.7599" y2="46.2502" stroke-width="1.728" x1="54.1627" y1="96.5241" stroke="black"/>
 </g>
 <g partID="855434860">
  <line stroke-linecap="round" x2="54.1627" y2="96.5241" stroke-width="1.728" x1="74.0209" y1="109.866" stroke="black"/>
 </g>
 <g partID="855436590">
  <line stroke-linecap="round" x2="176.451" y2="38.913" stroke-width="1.728" x1="32.4227" y1="38.913" stroke="black"/>
 </g>
 <g partID="855436530">
  <line stroke-linecap="round" x2="176.45" y2="147.07" stroke-width="1.728" x1="176.45" y1="38.913" stroke="black"/>
 </g>
 <g partID="855436470">
  <line stroke-linecap="round" x2="141.919" y2="147.046" stroke-width="1.728" x1="176.45" y1="147.07" stroke="black"/>
 </g>
 <g partID="855436410">
  <line stroke-linecap="round" x2="32.4227" y2="38.9132" stroke-width="1.728" x1="46.8255" y1="103.862" stroke="black"/>
 </g>
 <g partID="855434930">
  <line stroke-linecap="round" x2="46.8255" y2="103.861" stroke-width="1.728" x1="74.0805" y1="124.198" stroke="black"/>
 </g>
 <g partID="855436830">
  <line stroke-linecap="round" x2="141.92" y2="154.241" stroke-width="1.728" x1="183.788" y1="154.135" stroke="black"/>
 </g>
 <g partID="855436770">
  <line stroke-linecap="round" x2="183.788" y2="154.136" stroke-width="1.728" x1="183.788" y1="31.8475" stroke="black"/>
 </g>
 <g partID="855436710">
  <line stroke-linecap="round" x2="183.788" y2="31.8475" stroke-width="1.728" x1="25.3571" y1="31.8475" stroke="black"/>
 </g>
 <g partID="855436650">
  <line stroke-linecap="round" x2="25.3571" y2="31.8478" stroke-width="1.728" x1="39.7599" y1="110.927" stroke="black"/>
 </g>
 <g partID="855435000">
  <line stroke-linecap="round" x2="39.7599" y2="110.926" stroke-width="1.728" x1="74.1263" y1="138.54" stroke="black"/>
 </g>
 <g partID="855437180">
  <line stroke-linecap="round" x2="141.919" y2="161.442" stroke-width="1.728" x1="190.955" y1="161.332" stroke="black"/>
 </g>
 <g partID="855437120">
  <line stroke-linecap="round" x2="190.955" y2="161.332" stroke-width="1.728" x1="190.955" y1="24.5397" stroke="black"/>
 </g>
 <g partID="855437060">
  <line stroke-linecap="round" x2="190.955" y2="24.5397" stroke-width="1.728" x1="18.1205" y1="24.5397" stroke="black"/>
 </g>
 <g partID="855437000">
  <line stroke-linecap="round" x2="18.1205" y2="24.5399" stroke-width="1.728" x1="32.5943" y1="118.194" stroke="black"/>
 </g>
 <g partID="855435070">
  <line stroke-linecap="round" x2="32.5943" y2="118.194" stroke-width="1.728" x1="74.1583" y1="152.909" stroke="black"/>
 </g>
 <g partID="855437420">
  <line stroke-linecap="round" x2="141.919" y2="168.646" stroke-width="1.728" x1="198.05" y1="168.71" stroke="black"/>
 </g>
 <g partID="855437360">
  <line stroke-linecap="round" x2="198.05" y2="168.71" stroke-width="1.728" x1="198.05" y1="17.4447" stroke="black"/>
 </g>
 <g partID="855437300">
  <line stroke-linecap="round" x2="198.05" y2="17.4447" stroke-width="1.728" x1="10.773" y1="10.1517" stroke="black"/>
 </g>
 <g partID="855437240">
  <line stroke-linecap="round" x2="10.773" y2="10.1517" stroke-width="1.728" x1="25.2155" y1="118.194" stroke="black"/>
 </g>
 <g partID="855435140">
  <line stroke-linecap="round" x2="25.2155" y2="118.194" stroke-width="1.728" x1="74.2761" y1="167.172" stroke="black"/>
 </g>
 <g partID="855437480">
  <line stroke-linecap="round" x2="132.322" y2="219.945" stroke-width="1.728" x1="77.3207" y1="268.074" stroke="black"/>
 </g>
 <g partID="855437550">
  <line stroke-linecap="round" x2="132.257" y2="212.665" stroke-width="1.728" x1="77.4196" y1="253.794" stroke="black"/>
 </g>
 <g partID="855438600">
  <line stroke-linecap="round" x2="248.525" y2="276.712" stroke-width="1.728" x1="248.525" y1="211.804" stroke="black"/>
 </g>
 <g partID="855438540">
  <line stroke-linecap="round" x2="54.166" y2="276.712" stroke-width="1.728" x1="248.525" y1="276.712" stroke="black"/>
 </g>
 <g partID="855438480">
  <line stroke-linecap="round" x2="54.1665" y2="240.611" stroke-width="1.728" x1="54.166" y1="276.712" stroke="black"/>
 </g>
 <g partID="855438420">
  <line stroke-linecap="round" x2="73.6666" y2="240.627" stroke-width="1.728" x1="54.1665" y1="240.611" stroke="black"/>
 </g>
 <g partID="855438350">
  <line stroke-linecap="round" x2="248.525" y2="211.804" stroke-width="1.728" x1="261.584" y1="211.841" stroke="black"/>
 </g>
 <g partID="855447160">
  <line stroke-linecap="round" x2="132.07" y2="161.925" stroke-width="1.728" x1="77.7108" y1="182.313" stroke="black"/>
 </g>
 <g partID="855447230">
  <line stroke-linecap="round" x2="132.128" y2="169.256" stroke-width="1.728" x1="77.6165" y1="196.512" stroke="black"/>
 </g>
</svg>
