G04 MADE WITH FRITZING*
G04 WWW.FRITZING.ORG*
G04 SINGLE SIDED*
G04 HOLES NOT PLATED*
G04 CONTOUR ON CENTER OF CONTOUR VECTOR*
%ASAXBY*%
%FSLAX23Y23*%
%MOIN*%
%OFA0B0*%
%SFA1.0B1.0*%
%ADD10C,0.078000*%
%ADD11C,0.099583*%
%ADD12R,0.078000X0.078000*%
%ADD13C,0.024000*%
%LNCOPPER0*%
G90*
G70*
G54D10*
X3652Y895D03*
X3752Y895D03*
X3652Y995D03*
X3752Y995D03*
X3652Y1095D03*
X3752Y1095D03*
X3652Y1195D03*
X3752Y1195D03*
X3652Y1295D03*
X3752Y1295D03*
X3652Y1395D03*
X3752Y1395D03*
X3652Y1495D03*
X3752Y1495D03*
X3652Y1595D03*
X3752Y1595D03*
X3652Y1757D03*
X3752Y1757D03*
X3652Y1857D03*
X3752Y1857D03*
X3652Y1957D03*
X3752Y1957D03*
X3652Y2057D03*
X3752Y2057D03*
X3652Y2157D03*
X3752Y2157D03*
X3652Y2257D03*
X3752Y2257D03*
X3652Y2357D03*
X3752Y2357D03*
X3652Y2457D03*
X3752Y2457D03*
X3652Y2557D03*
X3752Y2557D03*
X3652Y2657D03*
X3752Y2657D03*
X1952Y2295D03*
X1852Y2295D03*
X1952Y2195D03*
X1852Y2195D03*
X1952Y2095D03*
X1852Y2095D03*
X1952Y1995D03*
X1852Y1995D03*
X1952Y1895D03*
X1852Y1895D03*
X1952Y1795D03*
X1852Y1795D03*
X1952Y1695D03*
X1852Y1695D03*
X1952Y1595D03*
X1852Y1595D03*
X1952Y1395D03*
X1852Y1395D03*
X1952Y1295D03*
X1852Y1295D03*
X1952Y1195D03*
X1852Y1195D03*
X1952Y1095D03*
X1852Y1095D03*
X1952Y995D03*
X1852Y995D03*
X1952Y895D03*
X1852Y895D03*
G54D11*
X4752Y2895D03*
X4752Y3095D03*
X4752Y3295D03*
X4752Y2295D03*
X4752Y2495D03*
X4752Y2695D03*
X4752Y1695D03*
X4752Y1895D03*
X4752Y2095D03*
X4752Y1295D03*
X4752Y1495D03*
X4752Y695D03*
X4752Y895D03*
X4752Y1095D03*
X4752Y295D03*
X4752Y495D03*
X1052Y2995D03*
X1052Y2795D03*
X1052Y2595D03*
X1052Y2395D03*
X1052Y2195D03*
X1052Y1995D03*
X1052Y1795D03*
X1052Y1595D03*
X1052Y595D03*
X1052Y395D03*
X1052Y195D03*
X1052Y995D03*
X1052Y795D03*
X1052Y1395D03*
X1052Y1195D03*
G54D12*
X1952Y1394D03*
X3652Y1757D03*
X3652Y894D03*
X1952Y2294D03*
G54D13*
X4353Y1193D02*
X4729Y912D01*
D02*
X3769Y1486D02*
X4353Y1193D01*
D02*
X4455Y2793D02*
X3953Y2793D01*
D02*
X3953Y2793D02*
X3768Y2668D01*
D02*
X4737Y3270D02*
X4455Y2793D01*
D02*
X3651Y3396D02*
X4953Y3396D01*
D02*
X4953Y3396D02*
X4952Y3095D01*
D02*
X4952Y3095D02*
X4781Y3095D01*
D02*
X3652Y2676D02*
X3651Y3396D01*
D02*
X3553Y2596D02*
X3634Y2564D01*
D02*
X5053Y2995D02*
X5053Y3495D01*
D02*
X5053Y3495D02*
X3552Y3495D01*
D02*
X3552Y3495D02*
X3553Y2596D01*
D02*
X4780Y2904D02*
X5053Y2995D01*
D02*
X3953Y2596D02*
X3771Y2561D01*
D02*
X4455Y2596D02*
X3953Y2596D01*
D02*
X4725Y2686D02*
X4455Y2596D01*
D02*
X4455Y2393D02*
X3771Y2261D01*
D02*
X4725Y2485D02*
X4455Y2393D01*
D02*
X3451Y2596D02*
X3640Y2372D01*
D02*
X5153Y3595D02*
X3452Y3595D01*
D02*
X5153Y2295D02*
X5153Y3595D01*
D02*
X3452Y3595D02*
X3451Y2596D01*
D02*
X4781Y2295D02*
X5153Y2295D01*
D02*
X4451Y2196D02*
X3771Y2158D01*
D02*
X4725Y2104D02*
X4451Y2196D01*
D02*
X4451Y2094D02*
X3771Y2058D01*
D02*
X4728Y1911D02*
X4451Y2094D01*
D02*
X4353Y1897D02*
X3771Y1955D01*
D02*
X4726Y1708D02*
X4353Y1897D01*
D02*
X4353Y1694D02*
X3770Y1852D01*
D02*
X4726Y1508D02*
X4353Y1694D01*
D02*
X4252Y1593D02*
X3770Y1751D01*
D02*
X4727Y1310D02*
X4252Y1593D01*
D02*
X4455Y1294D02*
X3770Y1587D01*
D02*
X4728Y1111D02*
X4455Y1294D01*
D02*
X4252Y1097D02*
X3768Y1385D01*
D02*
X4730Y713D02*
X4252Y1097D01*
D02*
X4151Y995D02*
X3767Y1283D01*
D02*
X4730Y513D02*
X4151Y995D01*
D02*
X4054Y894D02*
X3766Y1181D01*
D02*
X4730Y314D02*
X4054Y894D01*
D02*
X1078Y1008D02*
X1835Y1386D01*
D02*
X1077Y810D02*
X1836Y1285D01*
D02*
X2051Y2298D02*
X1971Y2295D01*
D02*
X2051Y2993D02*
X2051Y2298D01*
D02*
X1081Y2995D02*
X2051Y2993D01*
D02*
X850Y3095D02*
X2150Y3098D01*
D02*
X2150Y3098D02*
X2150Y2193D01*
D02*
X2150Y2193D02*
X1971Y2195D01*
D02*
X952Y2796D02*
X850Y3095D01*
D02*
X1023Y2795D02*
X952Y2796D01*
D02*
X2251Y2094D02*
X1971Y2095D01*
D02*
X2251Y3197D02*
X2251Y2094D01*
D02*
X752Y3197D02*
X2251Y3197D01*
D02*
X850Y2695D02*
X752Y3197D01*
D02*
X1026Y2608D02*
X850Y2695D01*
D02*
X552Y3295D02*
X2353Y3295D01*
D02*
X2353Y3295D02*
X2353Y1996D01*
D02*
X2353Y1996D02*
X1971Y1995D01*
D02*
X752Y2596D02*
X552Y3295D01*
D02*
X1028Y2411D02*
X752Y2596D01*
D02*
X450Y3397D02*
X2451Y3397D01*
D02*
X2451Y3397D02*
X2451Y1894D01*
D02*
X2451Y1894D02*
X1971Y1895D01*
D02*
X650Y2494D02*
X450Y3397D01*
D02*
X1029Y2212D02*
X650Y2494D01*
D02*
X2553Y1796D02*
X1971Y1795D01*
D02*
X2553Y3495D02*
X2553Y1796D01*
D02*
X352Y3495D02*
X2553Y3495D01*
D02*
X552Y2396D02*
X352Y3495D01*
D02*
X1030Y2013D02*
X552Y2396D01*
D02*
X2652Y1696D02*
X1971Y1695D01*
D02*
X2652Y3596D02*
X2652Y1696D01*
D02*
X252Y3596D02*
X2652Y3596D01*
D02*
X453Y2295D02*
X252Y3596D01*
D02*
X1030Y1813D02*
X453Y2295D01*
D02*
X2751Y1594D02*
X1971Y1595D01*
D02*
X2751Y3695D02*
X2751Y1594D01*
D02*
X150Y3796D02*
X2751Y3695D01*
D02*
X350Y2295D02*
X150Y3796D01*
D02*
X1032Y1615D02*
X350Y2295D01*
D02*
X1074Y214D02*
X1838Y882D01*
D02*
X1075Y412D02*
X1837Y983D01*
D02*
X3452Y995D02*
X3452Y94D01*
D02*
X3452Y94D02*
X752Y94D01*
D02*
X752Y94D02*
X752Y595D01*
D02*
X752Y595D02*
X1023Y595D01*
D02*
X3633Y995D02*
X3452Y995D01*
D02*
X1079Y1405D02*
X1834Y1688D01*
D02*
X1078Y1208D02*
X1835Y1586D01*
G04 End of Copper0*
M02*