G04 MADE WITH FRITZING*
G04 WWW.FRITZING.ORG*
G04 SINGLE SIDED*
G04 HOLES NOT PLATED*
G04 CONTOUR ON CENTER OF CONTOUR VECTOR*
%ASAXBY*%
%FSLAX23Y23*%
%MOIN*%
%OFA0B0*%
%SFA1.0B1.0*%
%ADD10C,0.088000*%
%ADD11C,0.109583*%
%ADD12R,0.088000X0.088000*%
%LNMASK0*%
G90*
G70*
G54D10*
X3652Y895D03*
X3752Y895D03*
X3652Y995D03*
X3752Y995D03*
X3652Y1095D03*
X3752Y1095D03*
X3652Y1195D03*
X3752Y1195D03*
X3652Y1295D03*
X3752Y1295D03*
X3652Y1395D03*
X3752Y1395D03*
X3652Y1495D03*
X3752Y1495D03*
X3652Y1595D03*
X3752Y1595D03*
X3652Y1757D03*
X3752Y1757D03*
X3652Y1857D03*
X3752Y1857D03*
X3652Y1957D03*
X3752Y1957D03*
X3652Y2057D03*
X3752Y2057D03*
X3652Y2157D03*
X3752Y2157D03*
X3652Y2257D03*
X3752Y2257D03*
X3652Y2357D03*
X3752Y2357D03*
X3652Y2457D03*
X3752Y2457D03*
X3652Y2557D03*
X3752Y2557D03*
X3652Y2657D03*
X3752Y2657D03*
X1952Y2295D03*
X1852Y2295D03*
X1952Y2195D03*
X1852Y2195D03*
X1952Y2095D03*
X1852Y2095D03*
X1952Y1995D03*
X1852Y1995D03*
X1952Y1895D03*
X1852Y1895D03*
X1952Y1795D03*
X1852Y1795D03*
X1952Y1695D03*
X1852Y1695D03*
X1952Y1595D03*
X1852Y1595D03*
X1952Y1395D03*
X1852Y1395D03*
X1952Y1295D03*
X1852Y1295D03*
X1952Y1195D03*
X1852Y1195D03*
X1952Y1095D03*
X1852Y1095D03*
X1952Y995D03*
X1852Y995D03*
X1952Y895D03*
X1852Y895D03*
G54D11*
X4752Y2895D03*
X4752Y3095D03*
X4752Y3295D03*
X4752Y2295D03*
X4752Y2495D03*
X4752Y2695D03*
X4752Y1695D03*
X4752Y1895D03*
X4752Y2095D03*
X4752Y1295D03*
X4752Y1495D03*
X4752Y695D03*
X4752Y895D03*
X4752Y1095D03*
X4752Y295D03*
X4752Y495D03*
X1052Y2995D03*
X1052Y2795D03*
X1052Y2595D03*
X1052Y2395D03*
X1052Y2195D03*
X1052Y1995D03*
X1052Y1795D03*
X1052Y1595D03*
X1052Y595D03*
X1052Y395D03*
X1052Y195D03*
X1052Y995D03*
X1052Y795D03*
X1052Y1395D03*
X1052Y1195D03*
G54D12*
X1952Y1394D03*
X3652Y1757D03*
X3652Y894D03*
X1952Y2294D03*
G04 End of Mask0*
M02*