; NON-PLATED HOLES START AT T1
; THROUGH (PLATED) HOLES START AT T100
M48
INCH
T100C0.057917
T101C0.038000
%
T100
X010521Y027947
X047521Y010947
X047521Y026947
X047521Y022945
X010522Y009946
X010521Y011947
X047521Y016945
X010521Y003947
X010521Y005949
X010521Y021947
X047520Y012947
X047521Y020947
X010521Y019946
X047521Y024947
X047521Y004947
X010521Y029949
X047521Y014947
X010521Y023949
X047521Y006945
X047521Y008947
X047521Y018947
X010521Y015947
X010521Y007947
X010521Y025946
X047521Y030947
X010522Y013946
X010521Y001946
X047521Y032947
X010522Y017947
X047520Y002947
X047521Y028945
T101
X019521Y021947
X036521Y018572
X019521Y018947
X036521Y024572
X037521Y012947
X018521Y011947
X037521Y017572
X019521Y012947
X018521Y017947
X019521Y013947
X019521Y017947
X036521Y017572
X019521Y019947
X019521Y015947
X018521Y012947
X036521Y022572
X037521Y023572
X019521Y009947
X018521Y016947
X037521Y026572
X037521Y024572
X037521Y020572
X036521Y020572
X018521Y015947
X036521Y023572
X036521Y019572
X037521Y011947
X036521Y009947
X037521Y015947
X036521Y010947
X037521Y018572
X036521Y014947
X036521Y011947
X037521Y019572
X036521Y015947
X019521Y022947
X037521Y013947
X019521Y010947
X018521Y022947
X019521Y011947
X018521Y008947
X018521Y020947
X036521Y013947
X036521Y021572
X037521Y014947
X019521Y016947
X019521Y020947
X037521Y008947
X019521Y008947
X037521Y022572
X018521Y018947
X037521Y021572
X018521Y010947
X018521Y013947
X036521Y025572
X036521Y008947
X018521Y019947
X037521Y009947
X037521Y025572
X037521Y010947
X036521Y026572
X018521Y009947
X036521Y012947
X018521Y021947
T00
M30
